<?xml version="1.0" encoding="UTF-8"?>
<svg width="512px" height="512px" viewBox="0 0 512 512" version="1.1" xmlns="http://www.w3.org/2000/svg" xmlns:xlink="http://www.w3.org/1999/xlink">
    <!-- Generator: Sketch 61.2 (89653) - https://sketch.com -->
    <title>music</title>
    <desc>Created with Sketch.</desc>
    <g id="music" stroke="none" stroke-width="1" fill="none" fill-rule="evenodd">
        <g id="Figure_rythmique_croche_hampe_haut" transform="translate(190.000000, 148.000000)">
            <path d="M23.3659425,162.551708 C5.41432115,172.100589 -4.15102401,189.386341 1.73300811,202.389874 C8.0092879,216.260323 29.5763014,220.174799 49.8736378,211.127611 C70.1709213,202.08037 81.5503326,183.480523 75.2740528,169.610126 C68.9977202,155.739677 47.4307595,151.825201 27.1334231,160.872389 C25.8648561,161.437829 24.5627736,161.915123 23.3659425,162.551708 Z" id="path12112" fill="#000000" opacity="0.9"></path>
            <line x1="73.5" y1="178" x2="73.5" y2="0" id="path12114" stroke="#000000" stroke-width="1.5"></line>
            <path d="M74.3443808,5 C71.4080296,38.2797343 99.6233636,50.2010755 113.495731,65.6284268 C126.681697,80.2924399 131.498409,97.206453 130.959739,113.053564 C130.815923,117.284743 129.67855,135.618463 117.311839,154 C133.848952,107.884911 118.452292,89.3750527 103.410709,74.6475116 C85.1925935,56.8097849 71.6400666,39.9987347 74.3443808,5 Z" id="path12116" fill="#000000"></path>
        </g>
    </g>
</svg>