<?xml version="1.0" encoding="UTF-8"?>
<svg width="512px" height="512px" viewBox="0 0 512 512" version="1.1" xmlns="http://www.w3.org/2000/svg" xmlns:xlink="http://www.w3.org/1999/xlink">
    <!-- Generator: Sketch 61.2 (89653) - https://sketch.com -->
    <title>music</title>
    <desc>Created with Sketch.</desc>
    <g id="music" stroke="none" stroke-width="1" fill="none" fill-rule="evenodd">
        <g id="Figure_rythmique_croche_hampe_haut" transform="translate(146.000000, 76.000000)">
            <path d="M39.14554,271.028709 C9.07074582,287.102658 -6.95431296,316.20034 2.90335125,338.089621 C13.4181576,361.438211 49.5499076,368.027578 83.554536,352.798144 C117.559076,337.568622 136.623285,306.258881 126.108478,282.910379 C115.593583,259.561789 79.4619218,252.972422 45.4572933,268.201856 C43.3320317,269.153679 41.1506208,269.957124 39.14554,271.028709 Z" id="path12112" fill="#000000" opacity="0.9"></path>
            <line x1="123.5" y1="297" x2="123.5" y2="0" id="path12114" stroke="#000000" stroke-width="1.5"></line>
            <path d="M123.58001,8 C118.634576,63.6151264 166.155139,83.5373678 189.519126,109.318646 C211.727069,133.824279 219.839426,162.089978 218.932192,188.572734 C218.689975,195.64363 216.7744,226.28186 195.946256,257 C223.798235,179.935188 197.867018,149.002605 172.533825,124.390808 C141.850684,94.5814526 119.025375,66.4878184 123.58001,8 Z" id="path12116" fill="#000000"></path>
        </g>
    </g>
</svg>